<svg version="1.1" id="Layer_1" xmlns="http://www.w3.org/2000/svg" xmlns:xlink="http://www.w3.org/1999/xlink" x="0px" y="0px"
	 width="100%" viewBox="0 0 300 300" enable-background="new 0 0 300 300" xml:space="preserve">
<path fill="#FFFFFF00" opacity="1.000000" stroke="none"
	d="
M174.000000,301.000000 
	C116.000008,301.000000 58.500019,301.000000 1.000023,301.000000 
	C1.000015,201.000031 1.000015,101.000053 1.000008,1.000063 
	C100.999947,1.000042 200.999893,1.000042 300.999878,1.000021 
	C300.999939,100.999939 300.999939,200.999878 300.999969,300.999908 
	C258.833344,301.000000 216.666672,301.000000 174.000000,301.000000 
M266.363586,153.883255 
	C276.224487,133.182327 279.387573,111.511414 273.678314,89.266594 
	C269.793518,74.130455 263.040039,60.163399 249.892365,50.388161 
	C223.229065,30.564102 183.368103,29.912859 154.985245,48.969425 
	C152.426010,50.687717 150.531113,51.436501 147.486084,49.473976 
	C127.250954,36.432430 105.281654,31.903561 81.599594,37.072510 
	C68.886253,39.847374 56.803226,44.505451 47.574543,53.907059 
	C29.628746,72.189117 23.092073,94.716766 25.595776,119.859283 
	C27.950079,143.501526 38.844364,163.665054 52.933880,182.195862 
	C77.852142,214.968857 109.762009,240.037872 143.326889,263.200928 
	C149.404129,267.394806 153.103088,267.233276 159.152664,263.013245 
	C180.618622,248.039185 201.632202,232.452911 220.439194,214.184753 
	C238.551468,196.591385 254.959290,177.587570 266.363586,153.883255 
z"/>
<path fill="#E78927" opacity="1.000000" stroke="none"
	d="
M266.197052,154.221344 
	C254.959290,177.587570 238.551468,196.591385 220.439194,214.184753 
	C201.632202,232.452911 180.618622,248.039185 159.152664,263.013245 
	C153.103088,267.233276 149.404129,267.394806 143.326889,263.200928 
	C109.762009,240.037872 77.852142,214.968857 52.933880,182.195862 
	C38.844364,163.665054 27.950079,143.501526 25.595776,119.859283 
	C23.092073,94.716766 29.628746,72.189117 47.574543,53.907059 
	C56.803226,44.505451 68.886253,39.847374 81.599594,37.072510 
	C105.281654,31.903561 127.250954,36.432430 147.486084,49.473976 
	C150.531113,51.436501 152.426010,50.687717 154.985245,48.969425 
	C183.368103,29.912859 223.229065,30.564102 249.892365,50.388161 
	C263.040039,60.163399 269.793518,74.130455 273.678314,89.266594 
	C279.387573,111.511414 276.224487,133.182327 266.197052,154.221344 
M48.840813,76.408905 
	C43.497417,85.666267 40.679943,95.662506 40.011204,106.307396 
	C38.598949,128.787460 47.341194,148.045074 59.597851,165.909454 
	C83.106903,200.174454 115.600899,224.936096 148.810150,248.835922 
	C149.741898,249.506485 152.058182,249.349762 153.078186,248.641571 
	C182.453842,228.246506 210.438721,206.192993 233.017288,178.148132 
	C247.804855,159.780472 260.344849,140.000168 261.536774,115.550720 
	C262.659515,92.520317 256.493103,71.801590 235.755707,58.995110 
	C217.711517,47.851814 197.833755,47.491539 177.927338,54.103336 
	C172.565216,55.884331 167.587189,58.821758 161.687790,61.576221 
	C164.319366,63.927242 165.903839,65.370544 167.517624,66.780296 
	C185.209457,82.235298 202.929474,97.658173 220.586090,113.153290 
	C225.626480,117.576637 226.448273,122.073792 223.155243,125.569786 
	C219.901810,129.023712 215.758743,128.592224 210.878464,124.344200 
	C207.798340,121.663132 204.673141,119.033859 200.797424,115.722923 
	C200.797424,118.342873 200.797424,119.952789 200.797409,121.562714 
	C200.797226,141.559418 200.805649,161.556137 200.792938,181.552841 
	C200.787247,190.489410 198.507446,192.773254 189.529739,192.779007 
	C163.700653,192.795593 137.871567,192.793900 112.042488,192.780701 
	C103.447609,192.776321 101.103661,190.424805 101.095825,181.778961 
	C101.077248,161.282349 101.089699,140.785706 101.089600,120.289085 
	C101.089592,118.580093 101.089600,116.871109 101.089600,114.051262 
	C96.270775,118.107750 92.629196,121.482140 88.664185,124.420021 
	C85.039772,127.105507 80.674004,126.540764 78.293068,123.594330 
	C75.965454,120.713882 76.433662,116.306099 79.426544,113.183517 
	C80.001091,112.584076 80.657486,112.062035 81.285332,111.514854 
	C94.096046,100.350197 106.918907,89.199463 119.715187,78.018288 
	C125.829384,72.675812 131.893600,67.276138 138.195999,61.712078 
	C137.037018,60.856510 136.422577,60.314754 135.730148,59.904682 
	C119.799721,50.470100 102.553192,47.822651 84.661705,51.524117 
	C69.726433,54.613979 56.658310,61.322823 48.840813,76.408905 
M185.941681,123.500183 
	C185.867218,116.508461 187.652313,108.745110 185.166306,102.754066 
	C182.928452,97.361000 176.041336,93.871994 171.143341,89.613953 
	C164.142471,83.527786 157.085541,77.506119 149.858078,71.289642 
	C139.312027,80.509766 129.053909,89.260460 119.119308,98.364212 
	C117.328506,100.005234 115.961716,103.089088 115.935799,105.523178 
	C115.696350,128.014954 115.790085,150.510300 115.804962,173.004608 
	C115.805923,174.465073 115.955284,175.925461 116.050728,177.660614 
	C139.358719,177.660614 162.405975,177.660614 185.941650,177.660614 
	C185.941650,159.741196 185.941650,142.120636 185.941681,123.500183 
z"/>
<path fill="#FFFEFD00" opacity="1.000000" stroke="none"
	d="
M49.009468,76.082977 
	C56.658310,61.322823 69.726433,54.613979 84.661705,51.524117 
	C102.553192,47.822651 119.799721,50.470100 135.730148,59.904682 
	C136.422577,60.314754 137.037018,60.856510 138.195999,61.712078 
	C131.893600,67.276138 125.829384,72.675812 119.715187,78.018288 
	C106.918907,89.199463 94.096046,100.350197 81.285332,111.514854 
	C80.657486,112.062035 80.001091,112.584076 79.426544,113.183517 
	C76.433662,116.306099 75.965454,120.713882 78.293068,123.594330 
	C80.674004,126.540764 85.039772,127.105507 88.664185,124.420021 
	C92.629196,121.482140 96.270775,118.107750 101.089600,114.051262 
	C101.089600,116.871109 101.089592,118.580093 101.089600,120.289085 
	C101.089699,140.785706 101.077248,161.282349 101.095825,181.778961 
	C101.103661,190.424805 103.447609,192.776321 112.042488,192.780701 
	C137.871567,192.793900 163.700653,192.795593 189.529739,192.779007 
	C198.507446,192.773254 200.787247,190.489410 200.792938,181.552841 
	C200.805649,161.556137 200.797226,141.559418 200.797409,121.562714 
	C200.797424,119.952789 200.797424,118.342873 200.797424,115.722923 
	C204.673141,119.033859 207.798340,121.663132 210.878464,124.344200 
	C215.758743,128.592224 219.901810,129.023712 223.155243,125.569786 
	C226.448273,122.073792 225.626480,117.576637 220.586090,113.153290 
	C202.929474,97.658173 185.209457,82.235298 167.517624,66.780296 
	C165.903839,65.370544 164.319366,63.927242 161.687790,61.576221 
	C167.587189,58.821758 172.565216,55.884331 177.927338,54.103336 
	C197.833755,47.491539 217.711517,47.851814 235.755707,58.995110 
	C256.493103,71.801590 262.659515,92.520317 261.536774,115.550720 
	C260.344849,140.000168 247.804855,159.780472 233.017288,178.148132 
	C210.438721,206.192993 182.453842,228.246506 153.078186,248.641571 
	C152.058182,249.349762 149.741898,249.506485 148.810150,248.835922 
	C115.600899,224.936096 83.106903,200.174454 59.597851,165.909454 
	C47.341194,148.045074 38.598949,128.787460 40.011204,106.307396 
	C40.679943,95.662506 43.497417,85.666267 49.009468,76.082977 
z"/>
<path fill="#FFFDFC00" opacity="1.000000" stroke="none"
	d="
M185.941666,124.000137 
	C185.941650,142.120636 185.941650,159.741196 185.941650,177.660614 
	C162.405975,177.660614 139.358719,177.660614 116.050728,177.660614 
	C115.955284,175.925461 115.805923,174.465073 115.804962,173.004608 
	C115.790085,150.510300 115.696350,128.014954 115.935799,105.523178 
	C115.961716,103.089088 117.328506,100.005234 119.119308,98.364212 
	C129.053909,89.260460 139.312027,80.509766 149.858078,71.289642 
	C157.085541,77.506119 164.142471,83.527786 171.143341,89.613953 
	C176.041336,93.871994 182.928452,97.361000 185.166306,102.754066 
	C187.652313,108.745110 185.867218,116.508461 185.941666,124.000137 
M146.041290,138.763367 
	C146.398483,133.443436 146.755692,128.123505 147.122879,122.654793 
	C140.955948,122.654793 135.627228,122.654793 130.425293,122.654793 
	C130.425293,128.282028 130.425293,133.499496 130.425293,138.965286 
	C135.567505,138.965286 140.350403,138.965286 146.041290,138.763367 
M130.072174,159.346008 
	C130.168655,160.781128 130.265137,162.216248 130.364304,163.691101 
	C135.948135,163.691101 141.163910,163.691101 146.381561,163.691101 
	C146.381561,158.029510 146.381561,152.685379 146.381561,147.531036 
	C140.725754,147.531036 135.513580,147.531036 130.072144,147.531036 
	C130.072144,151.436478 130.072144,154.911621 130.072174,159.346008 
M171.564835,129.608459 
	C171.564835,127.331718 171.564835,125.054977 171.564835,122.656235 
	C165.657837,122.656235 160.446014,122.656235 155.348114,122.656235 
	C155.348114,128.280075 155.348114,133.512756 155.348114,138.709930 
	C160.864883,138.709930 165.961441,138.709930 171.564270,138.709930 
	C171.564270,135.806946 171.564270,133.178543 171.564835,129.608459 
M161.563507,147.116745 
	C159.468369,147.116745 157.373245,147.116745 155.242432,147.116745 
	C155.242432,153.034592 155.242432,158.270859 155.242432,163.703613 
	C160.609711,163.703613 165.672943,163.703613 170.888977,163.703613 
	C170.888977,158.092331 170.888977,152.769394 170.888977,147.116806 
	C167.807739,147.116806 165.168701,147.116806 161.563507,147.116745 
z"/>
<path fill="#E88E30" opacity="1.000000" stroke="none" 
	d="
M145.587296,138.864319 
	C140.350403,138.965286 135.567505,138.965286 130.425293,138.965286 
	C130.425293,133.499496 130.425293,128.282028 130.425293,122.654793 
	C135.627228,122.654793 140.955948,122.654793 147.122879,122.654793 
	C146.755692,128.123505 146.398483,133.443436 145.587296,138.864319 
z"/>
<path fill="#E78D2D" opacity="1.000000" stroke="none" 
	d="
M130.072159,158.866394 
	C130.072144,154.911621 130.072144,151.436478 130.072144,147.531036 
	C135.513580,147.531036 140.725754,147.531036 146.381561,147.531036 
	C146.381561,152.685379 146.381561,158.029510 146.381561,163.691101 
	C141.163910,163.691101 135.948135,163.691101 130.364304,163.691101 
	C130.265137,162.216248 130.168655,160.781128 130.072159,158.866394 
z"/>
<path fill="#E78B2A" opacity="1.000000" stroke="none" 
	d="
M171.564545,130.079300 
	C171.564270,133.178543 171.564270,135.806946 171.564270,138.709930 
	C165.961441,138.709930 160.864883,138.709930 155.348114,138.709930 
	C155.348114,133.512756 155.348114,128.280075 155.348114,122.656235 
	C160.446014,122.656235 165.657837,122.656235 171.564835,122.656235 
	C171.564835,125.054977 171.564835,127.331718 171.564545,130.079300 
z"/>
<path fill="#E78927" opacity="1.000000" stroke="none" 
	d="
M162.046585,147.116776 
	C165.168701,147.116806 167.807739,147.116806 170.888977,147.116806 
	C170.888977,152.769394 170.888977,158.092331 170.888977,163.703613 
	C165.672943,163.703613 160.609711,163.703613 155.242432,163.703613 
	C155.242432,158.270859 155.242432,153.034592 155.242432,147.116745 
	C157.373245,147.116745 159.468369,147.116745 162.046585,147.116776 
z"/>
</svg>